<svg xmlns="http://www.w3.org/2000/svg" width="640" height="380" viewBox="0 0 640 380">
  <defs>
    <linearGradient id="g" x1="0" y1="0" x2="1" y2="1">
      <stop offset="0" stop-color="#2E6BE5"/><stop offset="1" stop-color="#22D3EE"/>
    </linearGradient>
  </defs>
  <rect width="640" height="380" rx="22" fill="#F0F5FF"/>
  <!-- padel court -->
  <rect x="60" y="70" width="520" height="240" rx="12" fill="white" stroke="#BFD2FF" stroke-width="2"/>
  <line x1="320" y1="70" x2="320" y2="310" stroke="#BFD2FF" stroke-width="2"/>
  <line x1="60" y1="190" x2="580" y2="190" stroke="#BFD2FF" stroke-width="2"/>
  <!-- racket -->
  <g transform="translate(420,110) rotate(18)">
    <ellipse cx="0" cy="0" rx="48" ry="62" fill="url(#g)" stroke="#1E40AF" stroke-width="2"/>
    <rect x="-8" y="58" width="16" height="54" rx="8" fill="#0F172A"/>
    <circle cx="-16" cy="-8" r="3" fill="#fff"/><circle cx="0" cy="-12" r="3" fill="#fff"/><circle cx="16" cy="-8" r="3" fill="#fff"/>
    <circle cx="-16" cy="8" r="3" fill="#fff"/><circle cx="0" cy="4" r="3" fill="#fff"/><circle cx="16" cy="8" r="3" fill="#fff"/>
    <circle cx="-16" cy="24" r="3" fill="#fff"/><circle cx="0" cy="20" r="3" fill="#fff"/><circle cx="16" cy="24" r="3" fill="#fff"/>
  </g>
  <!-- ball -->
  <circle cx="220" cy="120" r="12" fill="#10B981"/>
</svg>